<svg xmlns="http://www.w3.org/2000/svg" width="148" height="43" viewBox="1 2 148 43" enable-background="new 1 2 148 43"><path d="M15.52 29.948c-3.168-.088-6.074-1.236-8.372-3.104 1.322 6.524 6.474 11.66 13.008 12.96-1.89-2.295-3.058-5.202-3.16-8.382-.543-.44-1.036-.935-1.475-1.474z" fill="#555"/><path d="M13.24 23.533c0-2.403.834-4.612 2.228-6.352-3.156.1-6.046 1.25-8.333 3.117-.208 1.047-.318 2.13-.318 3.24 0 1.132.114 2.24.33 3.31 2.3 1.868 5.204 3.017 8.374 3.105-1.423-1.75-2.28-3.98-2.28-6.416z" fill="#555"/><path d="M29.827 31.42c-.075 3.16-1.2 6.06-3.046 8.36 6.53-1.348 11.65-6.528 12.92-13.08-2.276 1.857-5.15 3.012-8.295 3.118-.464.59-.992 1.128-1.573 1.6z" fill="#C05E2F"/><path d="M39.653 20.145c-2.307-1.867-5.225-3.015-8.408-3.093 1.457 1.76 2.332 4.02 2.332 6.48 0 2.374-.814 4.56-2.177 6.287 3.143-.11 6.02-1.265 8.296-3.12.2-1.03.304-2.087.304-3.17 0-1.16-.12-2.294-.347-3.388z" fill="#62461E"/><path d="M23.408 33.7c-2.432 0-4.664-.85-6.415-2.277.103 3.18 1.272 6.087 3.16 8.38 1.053.213 2.14.323 3.254.323 1.155 0 2.284-.118 3.372-.345 1.842-2.3 2.97-5.2 3.042-8.36-1.75 1.43-3.983 2.28-6.417 2.28z" fill="#A14B24"/><path d="M61 13.81h3.29v15.734h9.85v2.995H61V13.81zm17.76 10.785V13.81h3.293v10.65c0 3.48 1.792 5.353 4.736 5.353 2.912 0 4.71-1.768 4.71-5.218V13.81h3.29v10.623c0 5.594-3.16 8.402-8.057 8.402-4.872 0-7.975-2.81-7.975-8.24zm22.912-10.785h3.507l5.695 8.858 5.697-8.857h3.507v18.73h-3.29V19.11l-5.914 8.83h-.108l-5.86-8.777V32.54h-3.238l-.002-18.73zm31.824-.133h3.05l8.242 18.864h-3.48l-1.898-4.52h-8.855l-1.927 4.52h-3.372l8.24-18.86zm4.71 11.427l-3.24-7.493-3.21 7.497h6.45z" fill="#555"/></svg>